# xmcd CD database file
#
# Track frame offsets:
#	150
#	19177
#	35775
#	57859
#	83256
#	111318
#	134497
#	159860
#	179612
#	198423
#	229406
#
# Disc length: 3079 seconds
#
# Revision: 1
# Processed by: cddbd v1.5.2PL0 Copyright (c) Steve Scherf et al.
# Submitted via: CDex 1.70beta3
#
DISCID=910c050b
DTITLE=AKBB - ビッグバンド★ジブリ
DYEAR=2010
DGENRE=Jazz
TTITLE0=カントリーロード
TTITLE1=君をのせて
TTITLE2=風の通り道
TTITLE3=海の見える街
TTITLE4=ねこバス
TTITLE5=アリエッティーズ・ソング
TTITLE6=風の谷のナウシカ
TTITLE7=崖の上のポニョ
TTITLE8=ナウシカ・レクイエム
TTITLE9=となりのトトロ
TTITLE10=データトラック
EXTD=YEAR: 2010
EXTT0=
EXTT1=
EXTT2=
EXTT3=
EXTT4=
EXTT5=
EXTT6=
EXTT7=
EXTT8=
EXTT9=
EXTT10=
PLAYORDER=
